<svg id="choices-choices-logo_svg__Layer_1" xmlns="http://www.w3.org/2000/svg" x="0" y="0" viewBox="0 0 3750.4 912.4" xml:space="preserve"><style>.choices-choices-logo_svg__st0{fill:#8bc220}</style><path class="choices-choices-logo_svg__st0" d="M1374.7 733.1c-46.2 24.9-98.5 38.1-151.4 38.1-176.1 0-319.4-143.3-319.4-319.4s143.3-319.4 319.4-319.4c55.7 0 110.6 14.5 158.6 42.1 31.7 18.2 72.1 7.2 90.3-24.5 18.2-31.7 7.2-72.1-24.5-90.3-68-39-145.6-59.6-224.4-59.6-120.7 0-234.1 47-319.5 132.3a457.19 457.19 0 00-66.3 84c-18.5-30.2-40.7-58.4-66.3-84C685.9 47 572.5 0 451.8 0S217.7 47 132.3 132.3 0 331.1 0 451.8s47 234.1 132.3 319.5 198.8 132.3 319.5 132.3c74.8 0 148.9-18.7 214.3-54 32.2-17.4 44.2-57.5 26.8-89.7-17.4-32.2-57.5-44.2-89.7-26.8-46.2 24.9-98.5 38.1-151.4 38.1-176.1 0-319.4-143.3-319.4-319.4s143.3-319.4 319.4-319.4 319.4 143.3 319.4 319.4c0 2.5.1 4.9.4 7.3 1.9 117.9 48.6 228.5 132.2 312.1 85.3 85.3 198.8 132.3 319.5 132.3 74.8 0 148.9-18.7 214.3-54 32.2-17.4 44.2-57.5 26.8-89.7-17.3-32-57.5-44-89.7-26.7zM2762.1 0c-24.7 0-42.9 17.7-42.9 40.2 0 22.5 18.2 40.2 42.9 40.2 25.2 0 42.9-18.2 42.9-41.8 0-22-18.2-38.6-42.9-38.6zm-927.7 181.3c22 0 42.3 7.4 58.4 23.4 8.9 8.9 22.9 10.5 33.8 4.2l4.4-2.5c15.7-9.2 18.8-30.7 6.1-43.7-24.4-25.1-60.1-38.2-102.1-38.2-90.6 0-155 60.6-155 146.4s64.4 146.9 155 146.9c42 0 77.6-13.7 102-38.8 12.7-13 9.5-34.5-6.1-43.7l-4.3-2.5c-10.9-6.4-24.8-4.7-33.8 4.2-16 16-36.4 23.4-58.4 23.4-49.3 0-86.9-33.8-86.9-89.6 0-55.2 37.6-89.5 86.9-89.5zm340.5-56.9c-39.7 0-73.5 12.9-95.5 36.5V44.2c0-15.5-12.6-28.1-28.1-28.1h-10.9c-15.5 0-28.1 12.6-28.1 28.1V386c0 15.5 12.6 28.1 28.1 28.1h10.9c15.5 0 28.1-12.6 28.1-28.1V269.2c0-57.4 32.2-86.3 79.9-86.3 42.9 0 68.1 24.7 68.1 75.6V386c0 15.5 12.6 28.1 28.1 28.1h10.9c15.5 0 28.1-12.6 28.1-28.1V250c0-86.4-50.9-125.6-119.6-125.6zm336.3 0c-88 0-152.3 60.6-152.3 146.4s64.4 146.9 152.3 146.9c89 0 152.8-61.1 152.8-146.9s-63.8-146.4-152.8-146.4zm0 236c-48.3 0-84.7-34.9-84.7-89.6s36.5-89.6 84.7-89.6c48.8 0 85.3 34.9 85.3 89.6s-36.5 89.6-85.3 89.6zm245.2 53.6h10.9c15.5 0 28.1-12.6 28.1-28.1V155.7c0-15.5-12.6-28.1-28.1-28.1h-10.9c-15.5 0-28.1 12.6-28.1 28.1V386c0 15.5 12.6 28 28.1 28zm257.8-232.7c22 0 42.3 7.4 58.4 23.4 8.9 8.9 22.9 10.5 33.8 4.2l4.4-2.5c15.7-9.2 18.8-30.7 6.1-43.7-24.4-25.1-60.1-38.2-102.1-38.2-90.6 0-155 60.6-155 146.4s64.4 146.9 155 146.9c42 0 77.6-13.7 102-38.8 12.7-13 9.5-34.5-6.1-43.7l-4.3-2.5c-10.9-6.4-24.8-4.7-33.8 4.2-16 16-36.4 23.4-58.4 23.4-49.3 0-86.9-33.8-86.9-89.6 0-55.2 37.5-89.5 86.9-89.5zm298.8-56.9c-81.1.9-147 67.4-146 148.5 1 84.2 63 144.8 158.2 144.8 36.4 0 67.9-8.8 92.3-25.7 13.7-9.5 16.2-28.9 5.2-41.5l-.2-.2c-9.1-10.5-24.6-12.9-36.3-5.4-16.7 10.7-36.2 16-59.4 16-49.9 0-84.7-26.8-92.8-68.6h206c10.9 0 19.8-8.8 19.8-19.7v-.2c0-90.2-62.1-148.9-146.8-148zm-79.5 123.4c6.4-41.8 38.1-69.7 81.5-69.7 44 0 75.6 28.4 81 69.7h-162.5zm331.9-37c0-18.8 19.3-32.2 60.1-32.2 19.7 0 39.4 2.8 59.2 10.4 13.5 5.2 28.8-.5 35.3-13.5 7.8-15.4-.1-34.2-16.6-39.4-23.5-7.5-51.6-11.6-77.3-11.6-77.2 0-126 35.4-126 89.6 0 114.2 177 62.7 177 117.5 0 19.8-17.7 31.6-60.1 31.6-26.1 0-53.6-6.2-76.4-16-13.7-5.9-29.5-.2-36.2 13.1l-.5 1.1c-7.4 14.6-.7 32.4 14.5 38.7 26.1 10.7 60.3 17.9 94.4 17.9 80.4 0 129.8-34.9 129.8-88.5-.2-112.3-177.2-60.8-177.2-118.7zM1842.4 675.9c22 0 42.3 7.4 58.4 23.4 8.9 8.9 22.9 10.5 33.8 4.2l4.4-2.5c15.7-9.2 18.8-30.7 6.1-43.7-24.4-25.2-60.1-38.3-102.1-38.3-90.6 0-155 60.6-155 146.4s64.4 146.9 155 146.9c42 0 77.6-13.7 102-38.8 12.7-13 9.5-34.5-6.1-43.7l-4.3-2.5c-10.9-6.4-24.8-4.7-33.8 4.2-16 16-36.4 23.4-58.4 23.4-49.3 0-86.9-33.8-86.9-89.6.1-55.1 37.6-89.4 86.9-89.4zM2183 619c-39.7 0-73.5 12.9-95.5 36.5V538.8c0-15.5-12.6-28.1-28.1-28.1h-10.9c-15.5 0-28.1 12.6-28.1 28.1v341.8c0 15.5 12.6 28.1 28.1 28.1h10.9c15.5 0 28.1-12.6 28.1-28.1V763.8c0-57.4 32.2-86.3 79.9-86.3 42.9 0 68.1 24.7 68.1 75.6v127.5c0 15.5 12.6 28.1 28.1 28.1h10.9c15.5 0 28.1-12.6 28.1-28.1v-136c0-86.4-51-125.6-119.6-125.6zm336.2 0c-88 0-152.3 60.6-152.3 146.4s64.4 146.9 152.3 146.9c89 0 152.8-61.1 152.8-146.9S2608.2 619 2519.2 619zm0 236c-48.3 0-84.7-34.9-84.7-89.6 0-54.7 36.5-89.6 84.7-89.6 48.8 0 85.3 34.9 85.3 89.6 0 54.8-36.5 89.6-85.3 89.6zm245.2 53.6h10.9c15.5 0 28.1-12.6 28.1-28.1V650.3c0-15.5-12.6-28.1-28.1-28.1h-10.9c-15.5 0-28.1 12.6-28.1 28.1v230.2c.1 15.6 12.6 28.1 28.1 28.1zm5.7-414c-24.7 0-42.9 17.7-42.9 40.2 0 22.5 18.2 40.2 42.9 40.2 25.2 0 42.9-18.2 42.9-41.8 0-22-18.2-38.6-42.9-38.6zm252.1 181.3c22 0 42.3 7.4 58.4 23.4 8.9 8.9 22.9 10.5 33.8 4.2l4.4-2.5c15.7-9.2 18.8-30.7 6.1-43.7-24.4-25.1-60.1-38.2-102.1-38.2-90.6 0-155 60.6-155 146.4s64.4 146.9 155 146.9c42 0 77.6-13.7 102-38.8 12.7-13 9.5-34.5-6.1-43.7l-4.3-2.5c-10.9-6.4-24.8-4.7-33.8 4.2-16 16-36.4 23.4-58.4 23.4-49.3 0-86.9-33.8-86.9-89.6 0-55.2 37.6-89.5 86.9-89.5zm298.8-56.8c-81.1.9-147 67.4-146 148.5 1 84.2 63 144.8 158.2 144.8 36.4 0 67.9-8.8 92.3-25.7 13.7-9.5 16.2-28.9 5.2-41.5l-.2-.2c-9.1-10.5-24.6-12.9-36.3-5.4-16.7 10.7-36.2 16-59.4 16-49.9 0-84.7-26.8-92.8-68.6h206c10.9 0 19.8-8.8 19.8-19.7v-.2c0-90.3-62.1-149-146.8-148zm-79.5 123.3c6.4-41.8 38.1-69.7 81.5-69.7 44 0 75.6 28.4 81 69.7h-162.5zm332-37c0-18.8 19.3-32.2 60.1-32.2 19.7 0 39.4 2.8 59.2 10.4 13.5 5.2 28.8-.5 35.3-13.5 7.8-15.4-.1-34.2-16.6-39.4-23.5-7.5-51.6-11.6-77.3-11.6-77.2 0-126 35.4-126 89.6 0 114.2 177 62.7 177 117.5 0 19.8-17.7 31.6-60.1 31.6-26.1 0-53.6-6.2-76.4-16-13.7-5.9-29.5-.2-36.2 13.1l-.5 1.1c-7.4 14.6-.7 32.4 14.5 38.7 26.1 10.7 60.3 17.9 94.4 17.9 80.4 0 129.8-34.9 129.8-88.5-.3-112.3-177.2-60.8-177.2-118.7z"></path></svg>