<?xml version="1.0" encoding="UTF-8"?> <svg xmlns="http://www.w3.org/2000/svg" viewBox="0 0 308.7 253.1"><path fill="#fff" d="M276.1 144.9l-26.3 14.5.2-24.4c.1-10.3 8.4-18.6 18.7-18.7 15.7 0 21.2 21 7.4 28.6zM39.7 176.3c10.3 0 16.5-11.4 11-20l-24-37.6v44.6c0 7.1 5.8 13 13 13zM176.3 0h-13.9c-4.1 0-7.8 2.2-9.7 5.8l-45.2 84.4h-.5L61.4 5.8C59.5 2.2 55.8 0 51.7 0h-14c-6.1 0-11 4.9-11 11v49H13.1C2.8 60-3.5 71.3 2.1 80l24.6 38.6V60h25.1c4 0 7.6 2.1 9.6 5.6l35.9 63c4.2 7.4 14.9 7.4 19.1 0L155.9 60h31l.4-48.9c.1-6.1-4.9-11.1-11-11.1zm128.1 229L254 180.9c-2.8-2.6-4.3-6.3-4.3-10.1l.1-11.3-30.6 16.9-.8.3-.2-109.6V60H187v179.2c0 7.7 6.2 13.9 13.9 13.9h3.8c6.6 0 12.2-4.7 13.5-11 .2-1 .3-2 .3-3v-25.3c0-5.1 2.7-9.7 7.2-12.2 3.8-2 8.4-1.4 11.5 1.6l47.8 45.6c2.5 2.3 5.7 3.8 9 4 13.1.8 19.7-15 10.4-23.8z"></path><path fill="#fff" d="M160.4 222.5c7 1.7 11.7 7.8 11.7 15 0 9.3-7.4 15.6-15.5 15.6-7.6 0-15.4-5.9-15.4-15.6 0-9.3 7.2-14.3 11.8-15.1v8c-2.2.8-5.2 3.1-5.2 7.2 0 5.1 4.5 8 8.7 8 4.5 0 8.8-3 8.8-8 0-4.7-4-6.7-5-7.1v-8zm-12-14.6c0-8.1 6.4-12 11.8-12s11.8 3.9 11.8 12-6.4 12-11.8 12c-5.5 0-11.8-3.9-11.8-12zm17.4 0c0-2.9-2.4-5.3-5.6-5.3s-5.6 2.5-5.6 5.3 2.4 5.3 5.6 5.3 5.6-2.4 5.6-5.3zm-23.5-15.8v-6.7H172v6.7h-29.7zm0-11.5V174H172v6.7h-29.7zm22-32.9c2.5 1.1 4.4 2.6 5.7 4.5 1.3 1.9 2 4 2 6.3 0 6.4-5.2 11.8-11.8 11.8-6.2 0-12-4.9-12-11.7s5.4-11.8 12.2-11.8c.9 0 1.2.1 1.8.2v16.7c2.6-.4 4.2-2.6 4.2-5.2 0-2-.9-3.1-2.1-4v-6.8zm-6.6 5.9c-1.3.3-3.8 1.6-3.8 5.1s2.5 4.8 3.8 5.1v-10.2zm10.9-33.4c3.3 0 5.5.2 7.3 1.3 2.8 1.7 5.3 5.8 5.3 11.3 0 7.7-4.6 10.7-7.8 11.1v-7.7c2.2-1 2.2-3.5 2.2-3.9 0-.8-.1-5.4-6.1-5.4h-.7v.1c1.3.7 3.2 2.6 3.2 6.1 0 6.1-4.6 11.2-11.7 11.2-7.6 0-12-5.5-12-11.2 0-2.5.9-4.9 2.8-6.1v-.1H149v-6.7h19.6zm-2.8 12.1c0-3.2-2.3-5.5-5.5-5.5-3.6 0-5.7 2.5-5.7 5.4 0 2.9 2.3 5.4 5.5 5.4 3.6 0 5.7-2.5 5.7-5.3zM164.3 94c2.5 1.1 4.4 2.6 5.7 4.5 1.3 1.9 2 4 2 6.3 0 6.4-5.2 11.8-11.8 11.8-6.2 0-12-4.9-12-11.7s5.4-11.8 12.2-11.8c.9 0 1.2.1 1.8.2V110c2.6-.4 4.2-2.6 4.2-5.2 0-2-.9-3.1-2.1-4V94zm-6.6 5.8c-1.3.3-3.8 1.6-3.8 5.1s2.5 4.8 3.8 5.1V99.8z"></path></svg> 