<svg xmlns="http://www.w3.org/2000/svg" width="143.574" height="36.224" viewBox="0 0 133.574 36.224">
  <g data-name="Group 1" fill="#ffffff" fill-rule="evenodd">
    <path data-name="Path 1" d="M133.561 25.642a2.9 2.9 0 1 1 .013 0"/>
    <path data-name="Path 2" d="M29.74 9.185a7.262 7.262 0 0 1 5.353 2.123 7.35 7.35 0 0 1 2.11 5.378v11.635h-4.234V17.44a4.109 4.109 0 0 0-1.118-2.953 3.87 3.87 0 0 0-2.948-1.169 3.933 3.933 0 0 0-2.953 1.169 4.071 4.071 0 0 0-1.131 2.953v10.893h-4.226V4.234A4.234 4.234 0 0 1 24.827 0v10.931a7.287 7.287 0 0 1 4.913-1.746"/>
    <path data-name="Path 3" d="M57.256 18.922a11.157 11.157 0 0 1-.176 1.86H43.058a4.888 4.888 0 0 0 1.86 2.814 5.478 5.478 0 0 0 3.38 1.055 5.026 5.026 0 0 0 4.611-2.513l3.531 2.2a9.26 9.26 0 0 1-3.38 3.229 9.6 9.6 0 0 1-4.762 1.194 9.323 9.323 0 0 1-6.948-2.814 9.524 9.524 0 0 1-2.752-6.936A9.838 9.838 0 0 1 41.237 12a8.8 8.8 0 0 1 6.722-2.8 8.8 8.8 0 0 1 6.7 2.764 9.775 9.775 0 0 1 2.6 6.961m-9.263-5.649a5.252 5.252 0 0 0-3.292 1.018 4.825 4.825 0 0 0-1.721 2.882h9.964a4.737 4.737 0 0 0-1.709-2.865 5.126 5.126 0 0 0-3.242-1.03"/>
    <path data-name="Path 4" d="M88.756 9.185a8.8 8.8 0 0 1 6.735 2.8 9.863 9.863 0 0 1 2.639 7.011 9.738 9.738 0 0 1-2.639 6.936 8.8 8.8 0 0 1-6.7 2.814 8.129 8.129 0 0 1-5.654-2.048v9.526h-4.269v-22.4a4.2 4.2 0 0 1 4.2-4.2v2.513a6.622 6.622 0 0 1 5.692-2.9m-.327 15.429a5.139 5.139 0 0 0 3.9-1.6 5.591 5.591 0 0 0 1.533-4.021 5.7 5.7 0 0 0-1.541-4.071 5.582 5.582 0 0 0-7.84 0 5.7 5.7 0 0 0-1.558 4.021 5.591 5.591 0 0 0 1.533 4.021 5.189 5.189 0 0 0 3.945 1.6"/>
    <path data-name="Path 5" d="M68.363 9.185a8.8 8.8 0 0 1 6.7 2.8 9.863 9.863 0 0 1 2.639 7.011 9.738 9.738 0 0 1-2.639 6.936 8.8 8.8 0 0 1-6.7 2.814 8.129 8.129 0 0 1-5.654-2.048v9.526h-4.234v-22.4a4.2 4.2 0 0 1 4.2-4.2v2.513a6.622 6.622 0 0 1 5.692-2.9m-.332 15.427a5.139 5.139 0 0 0 3.9-1.6 5.591 5.591 0 0 0 1.533-4.021 5.7 5.7 0 0 0-1.533-4.069 5.66 5.66 0 0 0-7.853-.05 5.7 5.7 0 0 0-1.52 4.071 5.579 5.579 0 0 0 1.52 4.021 5.189 5.189 0 0 0 3.945 1.6"/>
    <path data-name="Path 6" d="M117.843 18.922a10.052 10.052 0 0 1-.188 1.86h-14.022a4.938 4.938 0 0 0 1.91 2.814 5.516 5.516 0 0 0 3.392 1.055 5.026 5.026 0 0 0 4.616-2.512l3.531 2.2a9.26 9.26 0 0 1-3.38 3.229 9.6 9.6 0 0 1-4.762 1.194 9.348 9.348 0 0 1-6.961-2.814 9.524 9.524 0 0 1-2.752-6.936 9.838 9.838 0 0 1 2.551-7.024 8.9 8.9 0 0 1 6.735-2.8 8.8 8.8 0 0 1 6.7 2.777 9.775 9.775 0 0 1 2.6 6.961m-9.26-5.642a5.227 5.227 0 0 0-3.302 1.015 4.762 4.762 0 0 0-1.719 2.875h9.964a4.737 4.737 0 0 0-1.671-2.865 5.126 5.126 0 0 0-3.242-1.03"/>
  </g>
  <g data-name="Group 2">
    <path data-name="Path 7" d="M18.269 17.125A8.531 8.531 0 0 0 14.5 14.16c-1.256-.565-2.626-1.018-3.933-1.457l-.993-.339a12.992 12.992 0 0 1-3.48-1.571 2.513 2.513 0 0 1-1.068-2.224 2.965 2.965 0 0 1 1.131-2.513 4.862 4.862 0 0 1 3.129-.942A5.415 5.415 0 0 1 14.6 8.506l3.631-2.22a10.052 10.052 0 0 0-3.317-3.769 9.662 9.662 0 0 0-5.6-1.6 9.172 9.172 0 0 0-6.081 2.1 7.074 7.074 0 0 0-2.513 5.7 6.647 6.647 0 0 0 .54 2.7 7.338 7.338 0 0 0 1.256 1.922 11.823 11.823 0 0 0 4.775 2.613l.214.075 1.533.5a24.589 24.589 0 0 1 3.531 1.256 4.41 4.41 0 0 1 1.784 1.256 3.091 3.091 0 0 1 .641 1.86 2.814 2.814 0 0 1-.817 2.123 6.106 6.106 0 0 1-4.234 1.407c-3.166 0-5.214-1.256-6.282-3.769L0 23.005a9.373 9.373 0 0 0 3.405 3.958 11.484 11.484 0 0 0 6.458 1.784 10.441 10.441 0 0 0 6.772-2.123 7.539 7.539 0 0 0 1.633-9.5" fill="#ffffff" fill-rule="evenodd"/>
  </g>
  <path data-name="Path 8" d="M130.671 9.374a9.021 9.021 0 0 0-1.822-.188 6.169 6.169 0 0 0-5.491 2.89V9.562a4.159 4.159 0 0 0-4.171 4.259v14.575h4.234v-7.413c0-2.123 0-4.071 1.256-5.855a5.164 5.164 0 0 1 3.141-1.935 7.916 7.916 0 0 1 2.852-.075Z" fill="#ffffff" fill-rule="evenodd"/>
</svg>